<svg width="420" height="700" viewBox="0 0 420 700" fill="none" xmlns="http://www.w3.org/2000/svg">
<rect width="420" height="700" rx="20" fill="white"/>
<rect x="73" y="27" width="248" height="58" fill="#C4C4C4" stroke="black" stroke-width="2"/>
<path d="M152.42 53.6364C152.42 54.5568 152.254 55.3523 151.922 56.0227C151.589 56.6932 151.134 57.2102 150.554 57.5739C149.974 57.9375 149.313 58.1193 148.568 58.1193C147.824 58.1193 147.162 57.9375 146.582 57.5739C146.003 57.2102 145.547 56.6932 145.214 56.0227C144.882 55.3523 144.716 54.5568 144.716 53.6364C144.716 52.7159 144.882 51.9205 145.214 51.25C145.547 50.5795 146.003 50.0625 146.582 49.6989C147.162 49.3352 147.824 49.1534 148.568 49.1534C149.313 49.1534 149.974 49.3352 150.554 49.6989C151.134 50.0625 151.589 50.5795 151.922 51.25C152.254 51.9205 152.42 52.7159 152.42 53.6364ZM151.398 53.6364C151.398 52.8807 151.271 52.2429 151.018 51.723C150.768 51.2031 150.429 50.8097 150 50.5426C149.574 50.2756 149.097 50.142 148.568 50.142C148.04 50.142 147.561 50.2756 147.132 50.5426C146.706 50.8097 146.366 51.2031 146.114 51.723C145.864 52.2429 145.739 52.8807 145.739 53.6364C145.739 54.392 145.864 55.0298 146.114 55.5497C146.366 56.0696 146.706 56.4631 147.132 56.7301C147.561 56.9972 148.04 57.1307 148.568 57.1307C149.097 57.1307 149.574 56.9972 150 56.7301C150.429 56.4631 150.768 56.0696 151.018 55.5497C151.271 55.0298 151.398 54.392 151.398 53.6364ZM154.197 58V49.2727H157.249C157.857 49.2727 158.358 49.3778 158.753 49.5881C159.148 49.7955 159.442 50.0753 159.635 50.4276C159.828 50.777 159.925 51.1648 159.925 51.5909C159.925 51.9659 159.858 52.2756 159.724 52.5199C159.594 52.7642 159.42 52.9574 159.205 53.0994C158.991 53.2415 158.76 53.3466 158.51 53.4148V53.5C158.777 53.517 159.045 53.6108 159.315 53.7812C159.585 53.9517 159.811 54.196 159.993 54.5142C160.175 54.8324 160.266 55.2216 160.266 55.6818C160.266 56.1193 160.166 56.5128 159.967 56.8622C159.768 57.2116 159.455 57.4886 159.026 57.6932C158.597 57.8977 158.038 58 157.351 58H154.197ZM155.254 57.0625H157.351C158.041 57.0625 158.531 56.929 158.821 56.6619C159.114 56.392 159.26 56.0653 159.26 55.6818C159.26 55.3864 159.185 55.1136 159.034 54.8636C158.884 54.6108 158.669 54.4091 158.391 54.2585C158.112 54.1051 157.783 54.0284 157.402 54.0284H155.254V57.0625ZM155.254 53.108H157.214C157.533 53.108 157.82 53.0455 158.075 52.9205C158.334 52.7955 158.538 52.6193 158.689 52.392C158.842 52.1648 158.919 51.8977 158.919 51.5909C158.919 51.2074 158.786 50.8821 158.518 50.6151C158.251 50.3452 157.828 50.2102 157.249 50.2102H155.254V53.108ZM165.343 49.2727H166.4V55.5114C166.4 56.0682 166.298 56.5412 166.093 56.9304C165.888 57.3196 165.6 57.6151 165.228 57.8168C164.856 58.0185 164.417 58.1193 163.911 58.1193C163.434 58.1193 163.009 58.0327 162.637 57.8594C162.265 57.6832 161.972 57.4332 161.759 57.1094C161.546 56.7855 161.44 56.4006 161.44 55.9545H162.479C162.479 56.2017 162.54 56.4176 162.663 56.6023C162.788 56.7841 162.958 56.9261 163.174 57.0284C163.39 57.1307 163.636 57.1818 163.911 57.1818C164.215 57.1818 164.474 57.1179 164.687 56.9901C164.9 56.8622 165.062 56.6747 165.173 56.4276C165.286 56.1776 165.343 55.8722 165.343 55.5114V49.2727ZM168.518 58V49.2727H173.785V50.2102H169.575V53.1591H173.512V54.0966H169.575V57.0625H173.853V58H168.518ZM182.712 52H181.656C181.593 51.696 181.484 51.429 181.327 51.1989C181.174 50.9688 180.987 50.7756 180.765 50.6193C180.546 50.4602 180.303 50.3409 180.036 50.2614C179.769 50.1818 179.491 50.142 179.201 50.142C178.673 50.142 178.194 50.2756 177.765 50.5426C177.339 50.8097 176.999 51.2031 176.746 51.723C176.496 52.2429 176.371 52.8807 176.371 53.6364C176.371 54.392 176.496 55.0298 176.746 55.5497C176.999 56.0696 177.339 56.4631 177.765 56.7301C178.194 56.9972 178.673 57.1307 179.201 57.1307C179.491 57.1307 179.769 57.0909 180.036 57.0114C180.303 56.9318 180.546 56.8139 180.765 56.6577C180.987 56.4986 181.174 56.304 181.327 56.0739C181.484 55.8409 181.593 55.5739 181.656 55.2727H182.712C182.633 55.7187 182.488 56.1179 182.278 56.4702C182.067 56.8224 181.806 57.1222 181.494 57.3693C181.181 57.6136 180.83 57.7997 180.441 57.9276C180.055 58.0554 179.641 58.1193 179.201 58.1193C178.457 58.1193 177.795 57.9375 177.215 57.5739C176.636 57.2102 176.18 56.6932 175.847 56.0227C175.515 55.3523 175.349 54.5568 175.349 53.6364C175.349 52.7159 175.515 51.9205 175.847 51.25C176.18 50.5795 176.636 50.0625 177.215 49.6989C177.795 49.3352 178.457 49.1534 179.201 49.1534C179.641 49.1534 180.055 49.2173 180.441 49.3452C180.83 49.473 181.181 49.6605 181.494 49.9077C181.806 50.152 182.067 50.4503 182.278 50.8026C182.488 51.152 182.633 51.5511 182.712 52ZM183.943 50.2102V49.2727H190.488V50.2102H187.744V58H186.687V50.2102H183.943ZM195.852 49.2727L198.443 56.6193H198.545L201.136 49.2727H202.244L199.04 58H197.949L194.744 49.2727H195.852ZM203.604 58V49.2727H208.871V50.2102H204.661V53.1591H208.598V54.0966H204.661V57.0625H208.939V58H203.604ZM210.776 58V49.2727H211.832V53.1591H216.486V49.2727H217.543V58H216.486V54.0966H211.832V58H210.776ZM220.715 49.2727V58H219.658V49.2727H220.715ZM229.857 52H228.8C228.738 51.696 228.628 51.429 228.472 51.1989C228.319 50.9688 228.131 50.7756 227.909 50.6193C227.691 50.4602 227.448 50.3409 227.181 50.2614C226.914 50.1818 226.635 50.142 226.346 50.142C225.817 50.142 225.338 50.2756 224.909 50.5426C224.483 50.8097 224.144 51.2031 223.891 51.723C223.641 52.2429 223.516 52.8807 223.516 53.6364C223.516 54.392 223.641 55.0298 223.891 55.5497C224.144 56.0696 224.483 56.4631 224.909 56.7301C225.338 56.9972 225.817 57.1307 226.346 57.1307C226.635 57.1307 226.914 57.0909 227.181 57.0114C227.448 56.9318 227.691 56.8139 227.909 56.6577C228.131 56.4986 228.319 56.304 228.472 56.0739C228.628 55.8409 228.738 55.5739 228.8 55.2727H229.857C229.777 55.7187 229.632 56.1179 229.422 56.4702C229.212 56.8224 228.951 57.1222 228.638 57.3693C228.326 57.6136 227.975 57.7997 227.586 57.9276C227.199 58.0554 226.786 58.1193 226.346 58.1193C225.601 58.1193 224.939 57.9375 224.36 57.5739C223.78 57.2102 223.324 56.6932 222.992 56.0227C222.659 55.3523 222.493 54.5568 222.493 53.6364C222.493 52.7159 222.659 51.9205 222.992 51.25C223.324 50.5795 223.78 50.0625 224.36 49.6989C224.939 49.3352 225.601 49.1534 226.346 49.1534C226.786 49.1534 227.199 49.2173 227.586 49.3452C227.975 49.473 228.326 49.6605 228.638 49.9077C228.951 50.152 229.212 50.4503 229.422 50.8026C229.632 51.152 229.777 51.5511 229.857 52ZM231.565 58V49.2727H232.621V57.0625H236.678V58H231.565ZM238.315 58V49.2727H243.582V50.2102H239.371V53.1591H243.309V54.0966H239.371V57.0625H243.65V58H238.315Z" fill="black"/>
<path d="M27 147H207V207H27V147Z" fill="#C4C4C4"/>
<path d="M73.0568 170V161.273H76.108C76.7159 161.273 77.2173 161.378 77.6122 161.588C78.0071 161.795 78.3011 162.075 78.4943 162.428C78.6875 162.777 78.7841 163.165 78.7841 163.591C78.7841 163.966 78.7173 164.276 78.5838 164.52C78.4531 164.764 78.2798 164.957 78.0639 165.099C77.8509 165.241 77.6193 165.347 77.3693 165.415V165.5C77.6364 165.517 77.9048 165.611 78.1747 165.781C78.4446 165.952 78.6705 166.196 78.8523 166.514C79.0341 166.832 79.125 167.222 79.125 167.682C79.125 168.119 79.0256 168.513 78.8267 168.862C78.6278 169.212 78.3139 169.489 77.8849 169.693C77.456 169.898 76.8977 170 76.2102 170H73.0568ZM74.1136 169.062H76.2102C76.9006 169.062 77.3906 168.929 77.6804 168.662C77.973 168.392 78.1193 168.065 78.1193 167.682C78.1193 167.386 78.044 167.114 77.8935 166.864C77.7429 166.611 77.5284 166.409 77.25 166.259C76.9716 166.105 76.642 166.028 76.2614 166.028H74.1136V169.062ZM74.1136 165.108H76.0739C76.392 165.108 76.679 165.045 76.9347 164.92C77.1932 164.795 77.3977 164.619 77.5483 164.392C77.7017 164.165 77.7784 163.898 77.7784 163.591C77.7784 163.207 77.6449 162.882 77.3778 162.615C77.1108 162.345 76.6875 162.21 76.108 162.21H74.1136V165.108ZM80.8615 170V161.273H83.8104C84.4922 161.273 85.0518 161.389 85.4893 161.622C85.9268 161.852 86.2507 162.169 86.4609 162.572C86.6712 162.976 86.7763 163.435 86.7763 163.949C86.7763 164.463 86.6712 164.919 86.4609 165.317C86.2507 165.714 85.9283 166.027 85.4936 166.254C85.0589 166.479 84.5036 166.591 83.8274 166.591H81.4411V165.636H83.7933C84.2592 165.636 84.6342 165.568 84.9183 165.432C85.2053 165.295 85.4126 165.102 85.5405 164.852C85.6712 164.599 85.7365 164.298 85.7365 163.949C85.7365 163.599 85.6712 163.294 85.5405 163.033C85.4098 162.771 85.201 162.57 84.9141 162.428C84.6271 162.283 84.2479 162.21 83.7763 162.21H81.9183V170H80.8615ZM84.9695 166.08L87.1172 170H85.8899L83.7763 166.08H84.9695ZM88.8952 170H87.7873L90.9918 161.273H92.0827L95.2873 170H94.1793L91.5714 162.653H91.5032L88.8952 170ZM89.3043 166.591H93.7702V167.528H89.3043V166.591ZM96.6467 170V161.273H99.5955C100.277 161.273 100.837 161.389 101.275 161.622C101.712 161.852 102.036 162.169 102.246 162.572C102.456 162.976 102.561 163.435 102.561 163.949C102.561 164.463 102.456 164.919 102.246 165.317C102.036 165.714 101.713 166.027 101.279 166.254C100.844 166.479 100.289 166.591 99.6126 166.591H97.2262V165.636H99.5785C100.044 165.636 100.419 165.568 100.703 165.432C100.99 165.295 101.198 165.102 101.326 164.852C101.456 164.599 101.522 164.298 101.522 163.949C101.522 163.599 101.456 163.294 101.326 163.033C101.195 162.771 100.986 162.57 100.699 162.428C100.412 162.283 100.033 162.21 99.5614 162.21H97.7035V170H96.6467ZM100.755 166.08L102.902 170H101.675L99.5614 166.08H100.755ZM107.016 170H104.322V161.273H107.135C107.982 161.273 108.706 161.447 109.308 161.797C109.911 162.143 110.372 162.642 110.693 163.293C111.014 163.94 111.175 164.716 111.175 165.619C111.175 166.528 111.013 167.311 110.689 167.967C110.365 168.621 109.893 169.124 109.274 169.476C108.655 169.825 107.902 170 107.016 170ZM105.379 169.062H106.947C107.669 169.062 108.267 168.923 108.741 168.645C109.216 168.366 109.57 167.97 109.803 167.456C110.036 166.942 110.152 166.33 110.152 165.619C110.152 164.915 110.037 164.308 109.807 163.8C109.577 163.288 109.233 162.896 108.776 162.624C108.318 162.348 107.749 162.21 107.067 162.21H105.379V169.062Z" fill="black"/>
<rect x="220" y="146" width="180" height="60" fill="#C4C4C4"/>
<path d="M261.057 170V161.273H264.006C264.688 161.273 265.247 161.389 265.685 161.622C266.122 161.852 266.446 162.169 266.656 162.572C266.866 162.976 266.972 163.435 266.972 163.949C266.972 164.463 266.866 164.919 266.656 165.317C266.446 165.714 266.124 166.027 265.689 166.254C265.254 166.479 264.699 166.591 264.023 166.591H261.636V165.636H263.989C264.455 165.636 264.83 165.568 265.114 165.432C265.401 165.295 265.608 165.102 265.736 164.852C265.866 164.599 265.932 164.298 265.932 163.949C265.932 163.599 265.866 163.294 265.736 163.033C265.605 162.771 265.396 162.57 265.109 162.428C264.822 162.283 264.443 162.21 263.972 162.21H262.114V170H261.057ZM265.165 166.08L267.312 170H266.085L263.972 166.08H265.165ZM268.733 170V161.273H274V162.21H269.789V165.159H273.727V166.097H269.789V169.062H274.068V170H268.733ZM275.904 170V161.273H281.137V162.21H276.961V165.159H280.745V166.097H276.961V170H275.904ZM282.947 170V161.273H288.214V162.21H284.004V165.159H287.942V166.097H284.004V169.062H288.283V170H282.947ZM290.119 170V161.273H293.068C293.75 161.273 294.31 161.389 294.747 161.622C295.185 161.852 295.509 162.169 295.719 162.572C295.929 162.976 296.034 163.435 296.034 163.949C296.034 164.463 295.929 164.919 295.719 165.317C295.509 165.714 295.186 166.027 294.751 166.254C294.317 166.479 293.761 166.591 293.085 166.591H290.699V165.636H293.051C293.517 165.636 293.892 165.568 294.176 165.432C294.463 165.295 294.67 165.102 294.798 164.852C294.929 164.599 294.994 164.298 294.994 163.949C294.994 163.599 294.929 163.294 294.798 163.033C294.668 162.771 294.459 162.57 294.172 162.428C293.885 162.283 293.506 162.21 293.034 162.21H291.176V170H290.119ZM294.227 166.08L296.375 170H295.148L293.034 166.08H294.227ZM297.795 170V161.273H303.062V162.21H298.852V165.159H302.789V166.097H298.852V169.062H303.13V170H297.795ZM311.887 161.273V170H310.865L306.109 163.148H306.024V170H304.967V161.273H305.99L310.762 168.142H310.848V161.273H311.887ZM321.025 164H319.968C319.906 163.696 319.796 163.429 319.64 163.199C319.487 162.969 319.299 162.776 319.077 162.619C318.859 162.46 318.616 162.341 318.349 162.261C318.082 162.182 317.803 162.142 317.513 162.142C316.985 162.142 316.506 162.276 316.077 162.543C315.651 162.81 315.312 163.203 315.059 163.723C314.809 164.243 314.684 164.881 314.684 165.636C314.684 166.392 314.809 167.03 315.059 167.55C315.312 168.07 315.651 168.463 316.077 168.73C316.506 168.997 316.985 169.131 317.513 169.131C317.803 169.131 318.082 169.091 318.349 169.011C318.616 168.932 318.859 168.814 319.077 168.658C319.299 168.499 319.487 168.304 319.64 168.074C319.796 167.841 319.906 167.574 319.968 167.273H321.025C320.945 167.719 320.8 168.118 320.59 168.47C320.38 168.822 320.119 169.122 319.806 169.369C319.494 169.614 319.143 169.8 318.754 169.928C318.367 170.055 317.954 170.119 317.513 170.119C316.769 170.119 316.107 169.938 315.528 169.574C314.948 169.21 314.492 168.693 314.16 168.023C313.827 167.352 313.661 166.557 313.661 165.636C313.661 164.716 313.827 163.92 314.16 163.25C314.492 162.58 314.948 162.062 315.528 161.699C316.107 161.335 316.769 161.153 317.513 161.153C317.954 161.153 318.367 161.217 318.754 161.345C319.143 161.473 319.494 161.661 319.806 161.908C320.119 162.152 320.38 162.45 320.59 162.803C320.8 163.152 320.945 163.551 321.025 164ZM322.733 170V161.273H328V162.21H323.789V165.159H327.727V166.097H323.789V169.062H328.068V170H322.733Z" fill="black"/>
<rect x="30" y="219" width="180" height="60" fill="#C4C4C4"/>
<path d="M69.0568 231.273H70.3182L73.2841 238.517H73.3864L76.3523 231.273H77.6136V240H76.625V233.369H76.5398L73.8125 240H72.858L70.1307 233.369H70.0455V240H69.0568V231.273ZM87.0962 235.636C87.0962 236.557 86.93 237.352 86.5977 238.023C86.2653 238.693 85.8093 239.21 85.2298 239.574C84.6502 239.938 83.9883 240.119 83.244 240.119C82.4996 240.119 81.8377 239.938 81.2582 239.574C80.6786 239.21 80.2227 238.693 79.8903 238.023C79.5579 237.352 79.3917 236.557 79.3917 235.636C79.3917 234.716 79.5579 233.92 79.8903 233.25C80.2227 232.58 80.6786 232.062 81.2582 231.699C81.8377 231.335 82.4996 231.153 83.244 231.153C83.9883 231.153 84.6502 231.335 85.2298 231.699C85.8093 232.062 86.2653 232.58 86.5977 233.25C86.93 233.92 87.0962 234.716 87.0962 235.636ZM86.0735 235.636C86.0735 234.881 85.9471 234.243 85.6942 233.723C85.4442 233.203 85.1048 232.81 84.6758 232.543C84.2496 232.276 83.7724 232.142 83.244 232.142C82.7156 232.142 82.2369 232.276 81.8079 232.543C81.3817 232.81 81.0423 233.203 80.7894 233.723C80.5394 234.243 80.4144 234.881 80.4144 235.636C80.4144 236.392 80.5394 237.03 80.7894 237.55C81.0423 238.07 81.3817 238.463 81.8079 238.73C82.2369 238.997 82.7156 239.131 83.244 239.131C83.7724 239.131 84.2496 238.997 84.6758 238.73C85.1048 238.463 85.4442 238.07 85.6942 237.55C85.9471 237.03 86.0735 236.392 86.0735 235.636ZM91.5664 240H88.8732V231.273H91.6857C92.5323 231.273 93.2567 231.447 93.859 231.797C94.4613 232.143 94.9229 232.642 95.244 233.293C95.565 233.94 95.7255 234.716 95.7255 235.619C95.7255 236.528 95.5636 237.311 95.2397 237.967C94.9158 238.621 94.4442 239.124 93.8249 239.476C93.2056 239.825 92.4528 240 91.5664 240ZM89.93 239.062H91.4982C92.2198 239.062 92.8178 238.923 93.2923 238.645C93.7667 238.366 94.1204 237.97 94.3533 237.456C94.5863 236.942 94.7028 236.33 94.7028 235.619C94.7028 234.915 94.5877 234.308 94.3576 233.8C94.1275 233.288 93.7837 232.896 93.3263 232.624C92.869 232.348 92.2994 232.21 91.6175 232.21H89.93V239.062ZM97.4982 240V231.273H102.765V232.21H98.555V235.159H102.493V236.097H98.555V239.062H102.833V240H97.4982ZM104.67 240V231.273H105.727V239.062H109.784V240H104.67Z" fill="black"/>
<rect x="220" y="219" width="180" height="60" fill="#C4C4C4"/>
<path d="M267.08 231H266.023C265.96 230.696 265.851 230.429 265.695 230.199C265.541 229.969 265.354 229.776 265.132 229.619C264.913 229.46 264.67 229.341 264.403 229.261C264.136 229.182 263.858 229.142 263.568 229.142C263.04 229.142 262.561 229.276 262.132 229.543C261.706 229.81 261.366 230.203 261.114 230.723C260.864 231.243 260.739 231.881 260.739 232.636C260.739 233.392 260.864 234.03 261.114 234.55C261.366 235.07 261.706 235.463 262.132 235.73C262.561 235.997 263.04 236.131 263.568 236.131C263.858 236.131 264.136 236.091 264.403 236.011C264.67 235.932 264.913 235.814 265.132 235.658C265.354 235.499 265.541 235.304 265.695 235.074C265.851 234.841 265.96 234.574 266.023 234.273H267.08C267 234.719 266.855 235.118 266.645 235.47C266.435 235.822 266.173 236.122 265.861 236.369C265.548 236.614 265.197 236.8 264.808 236.928C264.422 237.055 264.009 237.119 263.568 237.119C262.824 237.119 262.162 236.938 261.582 236.574C261.003 236.21 260.547 235.693 260.214 235.023C259.882 234.352 259.716 233.557 259.716 232.636C259.716 231.716 259.882 230.92 260.214 230.25C260.547 229.58 261.003 229.062 261.582 228.699C262.162 228.335 262.824 228.153 263.568 228.153C264.009 228.153 264.422 228.217 264.808 228.345C265.197 228.473 265.548 228.661 265.861 228.908C266.173 229.152 266.435 229.45 266.645 229.803C266.855 230.152 267 230.551 267.08 231ZM276.151 232.636C276.151 233.557 275.985 234.352 275.652 235.023C275.32 235.693 274.864 236.21 274.284 236.574C273.705 236.938 273.043 237.119 272.299 237.119C271.554 237.119 270.892 236.938 270.313 236.574C269.733 236.21 269.277 235.693 268.945 235.023C268.613 234.352 268.446 233.557 268.446 232.636C268.446 231.716 268.613 230.92 268.945 230.25C269.277 229.58 269.733 229.062 270.313 228.699C270.892 228.335 271.554 228.153 272.299 228.153C273.043 228.153 273.705 228.335 274.284 228.699C274.864 229.062 275.32 229.58 275.652 230.25C275.985 230.92 276.151 231.716 276.151 232.636ZM275.128 232.636C275.128 231.881 275.002 231.243 274.749 230.723C274.499 230.203 274.159 229.81 273.73 229.543C273.304 229.276 272.827 229.142 272.299 229.142C271.77 229.142 271.292 229.276 270.863 229.543C270.436 229.81 270.097 230.203 269.844 230.723C269.594 231.243 269.469 231.881 269.469 232.636C269.469 233.392 269.594 234.03 269.844 234.55C270.097 235.07 270.436 235.463 270.863 235.73C271.292 235.997 271.77 236.131 272.299 236.131C272.827 236.131 273.304 235.997 273.73 235.73C274.159 235.463 274.499 235.07 274.749 234.55C275.002 234.03 275.128 233.392 275.128 232.636ZM277.928 237V228.273H278.985V236.062H283.042V237H277.928ZM291.702 232.636C291.702 233.557 291.536 234.352 291.203 235.023C290.871 235.693 290.415 236.21 289.835 236.574C289.256 236.938 288.594 237.119 287.849 237.119C287.105 237.119 286.443 236.938 285.864 236.574C285.284 236.21 284.828 235.693 284.496 235.023C284.163 234.352 283.997 233.557 283.997 232.636C283.997 231.716 284.163 230.92 284.496 230.25C284.828 229.58 285.284 229.062 285.864 228.699C286.443 228.335 287.105 228.153 287.849 228.153C288.594 228.153 289.256 228.335 289.835 228.699C290.415 229.062 290.871 229.58 291.203 230.25C291.536 230.92 291.702 231.716 291.702 232.636ZM290.679 232.636C290.679 231.881 290.553 231.243 290.3 230.723C290.05 230.203 289.71 229.81 289.281 229.543C288.855 229.276 288.378 229.142 287.849 229.142C287.321 229.142 286.842 229.276 286.413 229.543C285.987 229.81 285.648 230.203 285.395 230.723C285.145 231.243 285.02 231.881 285.02 232.636C285.02 233.392 285.145 234.03 285.395 234.55C285.648 235.07 285.987 235.463 286.413 235.73C286.842 235.997 287.321 236.131 287.849 236.131C288.378 236.131 288.855 235.997 289.281 235.73C289.71 235.463 290.05 235.07 290.3 234.55C290.553 234.03 290.679 233.392 290.679 232.636ZM293.479 237V228.273H296.428C297.109 228.273 297.669 228.389 298.107 228.622C298.544 228.852 298.868 229.169 299.078 229.572C299.288 229.976 299.393 230.435 299.393 230.949C299.393 231.463 299.288 231.919 299.078 232.317C298.868 232.714 298.545 233.027 298.111 233.254C297.676 233.479 297.121 233.591 296.445 233.591H294.058V232.636H296.411C296.876 232.636 297.251 232.568 297.536 232.432C297.822 232.295 298.03 232.102 298.158 231.852C298.288 231.599 298.354 231.298 298.354 230.949C298.354 230.599 298.288 230.294 298.158 230.033C298.027 229.771 297.818 229.57 297.531 229.428C297.244 229.283 296.865 229.21 296.393 229.21H294.536V237H293.479ZM297.587 233.08L299.734 237H298.507L296.393 233.08H297.587Z" fill="black"/>
<path d="M84 661C84 679.778 69.6731 695 52 695C34.3269 695 20 679.778 20 661C20 642.222 34.3269 627 52 627C69.6731 627 84 642.222 84 661Z" fill="black"/>
<path d="M162 661C162 679.778 146.778 695 128 695C109.222 695 94 679.778 94 661C94 642.222 109.222 627 128 627C146.778 627 162 642.222 162 661Z" fill="black"/>
<path d="M240 661C240 679.778 224.778 695 206 695C187.222 695 172 679.778 172 661C172 642.222 187.222 627 206 627C224.778 627 240 642.222 240 661Z" fill="black"/>
<path d="M313 661C313 679.778 297.778 695 279 695C260.222 695 245 679.778 245 661C245 642.222 260.222 627 279 627C297.778 627 313 642.222 313 661Z" fill="black"/>
<circle cx="352" cy="661" r="34" fill="black"/>
<rect x="27" y="112" width="21" height="18" fill="#FD0303"/>
<path d="M36 153H57V171H36V153Z" fill="#FD0303"/>
<rect x="36" y="225" width="21" height="18" fill="#FD0303"/>
<rect x="224" y="225" width="21" height="18" fill="#FD0303"/>
<rect x="224" y="158" width="21" height="18" fill="#FD0303"/>
<rect x="23" y="585" width="21" height="18" fill="#FF0303"/>
<ellipse cx="381.5" cy="58" rx="28.5" ry="32" fill="#C4C4C4"/>
<path d="M53.0568 590.273H54.3182L57.2841 597.517H57.3864L60.3523 590.273H61.6136V599H60.625V592.369H60.5398L57.8125 599H56.858L54.1307 592.369H54.0455V599H53.0568V590.273ZM63.7326 599V590.273H68.9996V591.21H64.7894V594.159H68.7269V595.097H64.7894V598.062H69.0678V599H63.7326ZM70.4272 591.21V590.273H76.9727V591.21H74.2283V599H73.1715V591.21H70.4272ZM78.6037 599V590.273H79.6605V594.159H84.3139V590.273H85.3707V599H84.3139V595.097H79.6605V599H78.6037ZM94.8501 594.636C94.8501 595.557 94.6839 596.352 94.3516 597.023C94.0192 597.693 93.5632 598.21 92.9837 598.574C92.4041 598.938 91.7422 599.119 90.9979 599.119C90.2536 599.119 89.5916 598.938 89.0121 598.574C88.4325 598.21 87.9766 597.693 87.6442 597.023C87.3118 596.352 87.1456 595.557 87.1456 594.636C87.1456 593.716 87.3118 592.92 87.6442 592.25C87.9766 591.58 88.4325 591.062 89.0121 590.699C89.5916 590.335 90.2536 590.153 90.9979 590.153C91.7422 590.153 92.4041 590.335 92.9837 590.699C93.5632 591.062 94.0192 591.58 94.3516 592.25C94.6839 592.92 94.8501 593.716 94.8501 594.636ZM93.8274 594.636C93.8274 593.881 93.701 593.243 93.4482 592.723C93.1982 592.203 92.8587 591.81 92.4297 591.543C92.0036 591.276 91.5263 591.142 90.9979 591.142C90.4695 591.142 89.9908 591.276 89.5618 591.543C89.1357 591.81 88.7962 592.203 88.5433 592.723C88.2933 593.243 88.1683 593.881 88.1683 594.636C88.1683 595.392 88.2933 596.03 88.5433 596.55C88.7962 597.07 89.1357 597.463 89.5618 597.73C89.9908 597.997 90.4695 598.131 90.9979 598.131C91.5263 598.131 92.0036 597.997 92.4297 597.73C92.8587 597.463 93.1982 597.07 93.4482 596.55C93.701 596.03 93.8274 595.392 93.8274 594.636ZM99.3203 599H96.6271V590.273H99.4396C100.286 590.273 101.011 590.447 101.613 590.797C102.215 591.143 102.677 591.642 102.998 592.293C103.319 592.94 103.479 593.716 103.479 594.619C103.479 595.528 103.317 596.311 102.994 596.967C102.67 597.621 102.198 598.124 101.579 598.476C100.96 598.825 100.207 599 99.3203 599ZM97.6839 598.062H99.2521C99.9737 598.062 100.572 597.923 101.046 597.645C101.521 597.366 101.874 596.97 102.107 596.456C102.34 595.942 102.457 595.33 102.457 594.619C102.457 593.915 102.342 593.308 102.112 592.8C101.881 592.288 101.538 591.896 101.08 591.624C100.623 591.348 100.053 591.21 99.3714 591.21H97.6839V598.062ZM110.025 592.455C109.974 592.023 109.766 591.688 109.403 591.449C109.039 591.21 108.593 591.091 108.065 591.091C107.678 591.091 107.34 591.153 107.05 591.278C106.763 591.403 106.539 591.575 106.377 591.794C106.218 592.013 106.138 592.261 106.138 592.54C106.138 592.773 106.194 592.973 106.305 593.141C106.418 593.305 106.563 593.443 106.739 593.554C106.915 593.662 107.1 593.751 107.293 593.822C107.487 593.891 107.664 593.946 107.826 593.989L108.712 594.227C108.94 594.287 109.192 594.369 109.471 594.474C109.752 594.58 110.021 594.723 110.276 594.905C110.535 595.084 110.748 595.314 110.915 595.595C111.083 595.876 111.167 596.222 111.167 596.631C111.167 597.102 111.043 597.528 110.796 597.909C110.552 598.29 110.194 598.592 109.722 598.817C109.254 599.041 108.684 599.153 108.013 599.153C107.388 599.153 106.847 599.053 106.39 598.851C105.935 598.649 105.577 598.368 105.316 598.007C105.058 597.646 104.911 597.227 104.877 596.75H105.968C105.996 597.08 106.107 597.352 106.3 597.568C106.496 597.781 106.744 597.94 107.042 598.045C107.343 598.148 107.667 598.199 108.013 598.199C108.417 598.199 108.779 598.134 109.1 598.003C109.421 597.869 109.675 597.685 109.863 597.449C110.05 597.21 110.144 596.932 110.144 596.614C110.144 596.324 110.063 596.088 109.901 595.906C109.739 595.724 109.526 595.577 109.262 595.463C108.998 595.349 108.712 595.25 108.406 595.165L107.332 594.858C106.65 594.662 106.11 594.382 105.712 594.018C105.315 593.655 105.116 593.179 105.116 592.591C105.116 592.102 105.248 591.676 105.512 591.312C105.779 590.946 106.137 590.662 106.586 590.46C107.038 590.256 107.542 590.153 108.099 590.153C108.661 590.153 109.161 590.254 109.599 590.456C110.036 590.655 110.383 590.928 110.638 591.274C110.897 591.621 111.033 592.014 111.048 592.455H110.025ZM113.501 597.884C113.291 597.884 113.11 597.808 112.96 597.658C112.809 597.507 112.734 597.327 112.734 597.116C112.734 596.906 112.809 596.726 112.96 596.575C113.11 596.425 113.291 596.349 113.501 596.349C113.711 596.349 113.892 596.425 114.042 596.575C114.193 596.726 114.268 596.906 114.268 597.116C114.268 597.256 114.233 597.384 114.162 597.5C114.093 597.616 114.001 597.71 113.885 597.781C113.771 597.849 113.643 597.884 113.501 597.884ZM113.501 593.469C113.291 593.469 113.11 593.393 112.96 593.243C112.809 593.092 112.734 592.912 112.734 592.702C112.734 592.491 112.809 592.311 112.96 592.161C113.11 592.01 113.291 591.935 113.501 591.935C113.711 591.935 113.892 592.01 114.042 592.161C114.193 592.311 114.268 592.491 114.268 592.702C114.268 592.841 114.233 592.969 114.162 593.085C114.093 593.202 114.001 593.295 113.885 593.366C113.771 593.435 113.643 593.469 113.501 593.469Z" fill="black"/>
<path d="M54.4148 124H53.3068L56.5114 115.273H57.6023L60.8068 124H59.6989L57.0909 116.653H57.0227L54.4148 124ZM54.8239 120.591H59.2898V121.528H54.8239V120.591ZM60.6694 116.21V115.273H67.2148V116.21H64.4705V124H63.4137V116.21H60.6694ZM68.3686 116.21V115.273H74.9141V116.21H72.1697V124H71.1129V116.21H68.3686ZM76.5451 124V115.273H79.494C80.1758 115.273 80.7354 115.389 81.1729 115.622C81.6104 115.852 81.9343 116.169 82.1445 116.572C82.3548 116.976 82.4599 117.435 82.4599 117.949C82.4599 118.463 82.3548 118.919 82.1445 119.317C81.9343 119.714 81.6119 120.027 81.1772 120.254C80.7425 120.479 80.1871 120.591 79.511 120.591H77.1246V119.636H79.4769C79.9428 119.636 80.3178 119.568 80.6019 119.432C80.8888 119.295 81.0962 119.102 81.2241 118.852C81.3548 118.599 81.4201 118.298 81.4201 117.949C81.4201 117.599 81.3548 117.294 81.2241 117.033C81.0934 116.771 80.8846 116.57 80.5977 116.428C80.3107 116.283 79.9315 116.21 79.4599 116.21H77.6019V124H76.5451ZM80.6531 120.08L82.8008 124H81.5735L79.4599 120.08H80.6531ZM85.2777 115.273V124H84.2209V115.273H85.2777ZM87.3967 124V115.273H90.4478C91.0558 115.273 91.5572 115.378 91.9521 115.588C92.3469 115.795 92.641 116.075 92.8342 116.428C93.0273 116.777 93.1239 117.165 93.1239 117.591C93.1239 117.966 93.0572 118.276 92.9237 118.52C92.793 118.764 92.6197 118.957 92.4038 119.099C92.1907 119.241 91.9592 119.347 91.7092 119.415V119.5C91.9762 119.517 92.2447 119.611 92.5146 119.781C92.7844 119.952 93.0103 120.196 93.1921 120.514C93.3739 120.832 93.4648 121.222 93.4648 121.682C93.4648 122.119 93.3654 122.513 93.1665 122.862C92.9677 123.212 92.6538 123.489 92.2248 123.693C91.7958 123.898 91.2376 124 90.5501 124H87.3967ZM88.4535 123.062H90.5501C91.2404 123.062 91.7305 122.929 92.0202 122.662C92.3129 122.392 92.4592 122.065 92.4592 121.682C92.4592 121.386 92.3839 121.114 92.2333 120.864C92.0827 120.611 91.8683 120.409 91.5898 120.259C91.3114 120.105 90.9819 120.028 90.6012 120.028H88.4535V123.062ZM88.4535 119.108H90.4137C90.7319 119.108 91.0188 119.045 91.2745 118.92C91.533 118.795 91.7376 118.619 91.8881 118.392C92.0415 118.165 92.1183 117.898 92.1183 117.591C92.1183 117.207 91.9847 116.882 91.7177 116.615C91.4506 116.345 91.0273 116.21 90.4478 116.21H88.4535V119.108ZM100.929 115.273H101.985V121.051C101.985 121.648 101.845 122.18 101.564 122.649C101.285 123.115 100.892 123.483 100.383 123.753C99.8746 124.02 99.2781 124.153 98.5934 124.153C97.9087 124.153 97.3121 124.02 96.8036 123.753C96.2951 123.483 95.9002 123.115 95.619 122.649C95.3406 122.18 95.2013 121.648 95.2013 121.051V115.273H96.2582V120.966C96.2582 121.392 96.3519 121.771 96.5394 122.104C96.7269 122.433 96.994 122.693 97.3406 122.884C97.69 123.071 98.1076 123.165 98.5934 123.165C99.0792 123.165 99.4968 123.071 99.8462 122.884C100.196 122.693 100.463 122.433 100.647 122.104C100.835 121.771 100.929 121.392 100.929 120.966V115.273ZM103.619 116.21V115.273H110.164V116.21H107.42V124H106.363V116.21H103.619ZM111.795 124V115.273H117.062V116.21H112.852V119.159H116.789V120.097H112.852V123.062H117.13V124H111.795ZM123.74 117.455C123.689 117.023 123.481 116.688 123.118 116.449C122.754 116.21 122.308 116.091 121.779 116.091C121.393 116.091 121.055 116.153 120.765 116.278C120.478 116.403 120.254 116.575 120.092 116.794C119.933 117.013 119.853 117.261 119.853 117.54C119.853 117.773 119.909 117.973 120.02 118.141C120.133 118.305 120.278 118.443 120.454 118.554C120.63 118.662 120.815 118.751 121.008 118.822C121.201 118.891 121.379 118.946 121.541 118.989L122.427 119.227C122.654 119.287 122.907 119.369 123.186 119.474C123.467 119.58 123.735 119.723 123.991 119.905C124.25 120.084 124.463 120.314 124.63 120.595C124.798 120.876 124.882 121.222 124.882 121.631C124.882 122.102 124.758 122.528 124.511 122.909C124.267 123.29 123.909 123.592 123.437 123.817C122.968 124.041 122.399 124.153 121.728 124.153C121.103 124.153 120.562 124.053 120.105 123.851C119.65 123.649 119.292 123.368 119.031 123.007C118.772 122.646 118.626 122.227 118.592 121.75H119.683C119.711 122.08 119.822 122.352 120.015 122.568C120.211 122.781 120.458 122.94 120.757 123.045C121.058 123.148 121.382 123.199 121.728 123.199C122.132 123.199 122.494 123.134 122.815 123.003C123.136 122.869 123.39 122.685 123.578 122.449C123.765 122.21 123.859 121.932 123.859 121.614C123.859 121.324 123.778 121.088 123.616 120.906C123.454 120.724 123.241 120.577 122.977 120.463C122.713 120.349 122.427 120.25 122.12 120.165L121.047 119.858C120.365 119.662 119.825 119.382 119.427 119.018C119.029 118.655 118.831 118.179 118.831 117.591C118.831 117.102 118.963 116.676 119.227 116.312C119.494 115.946 119.852 115.662 120.301 115.46C120.752 115.256 121.257 115.153 121.814 115.153C122.376 115.153 122.876 115.254 123.314 115.456C123.751 115.655 124.098 115.928 124.353 116.274C124.612 116.621 124.748 117.014 124.762 117.455H123.74Z" fill="black"/>
</svg>
