<svg width="17" height="30" viewBox="0 0 17 30" fill="none" xmlns="http://www.w3.org/2000/svg">
<path d="M0.409091 15.1818C0.409091 12.3182 0.780303 9.68561 1.52273 7.28409C2.27273 4.875 3.34091 2.65909 4.72727 0.636362H7.09091C6.54545 1.38636 6.03409 2.3106 5.55682 3.40909C5.08712 4.5 4.67424 5.70076 4.31818 7.01136C3.96212 8.31439 3.68182 9.66288 3.47727 11.0568C3.2803 12.4508 3.18182 13.8258 3.18182 15.1818C3.18182 16.9848 3.35606 18.8144 3.70455 20.6705C4.05303 22.5265 4.52273 24.25 5.11364 25.8409C5.70455 27.4318 6.36364 28.7273 7.09091 29.7273H4.72727C3.34091 27.7045 2.27273 25.4924 1.52273 23.0909C0.780303 20.6818 0.409091 18.0455 0.409091 15.1818ZM16.7756 15.1818C16.7756 18.0455 16.4006 20.6818 15.6506 23.0909C14.9081 25.4924 13.8438 27.7045 12.4574 29.7273H10.0938C10.6392 28.9773 11.1468 28.053 11.6165 26.9545C12.0938 25.8636 12.5104 24.6667 12.8665 23.3636C13.2225 22.053 13.4991 20.7008 13.696 19.3068C13.9006 17.9053 14.0028 16.5303 14.0028 15.1818C14.0028 13.3788 13.8286 11.5492 13.4801 9.69318C13.1316 7.83712 12.6619 6.11364 12.071 4.52273C11.4801 2.93182 10.821 1.63636 10.0938 0.636362H12.4574C13.8438 2.65909 14.9081 4.875 15.6506 7.28409C16.4006 9.68561 16.7756 12.3182 16.7756 15.1818Z" fill="black"/>
</svg>
