<svg width="18" height="25" viewBox="0 0 18 25" fill="none" xmlns="http://www.w3.org/2000/svg">
<path d="M9 24.3182C7.28788 24.3182 5.82955 23.8523 4.625 22.9205C3.42045 21.9811 2.5 20.6212 1.86364 18.8409C1.22727 17.053 0.909091 14.8939 0.909091 12.3636C0.909091 9.84848 1.22727 7.70076 1.86364 5.92045C2.50758 4.13258 3.43182 2.76894 4.63636 1.82954C5.84848 0.882575 7.30303 0.40909 9 0.40909C10.697 0.40909 12.1477 0.882575 13.3523 1.82954C14.5644 2.76894 15.4886 4.13258 16.125 5.92045C16.7689 7.70076 17.0909 9.84848 17.0909 12.3636C17.0909 14.8939 16.7727 17.053 16.1364 18.8409C15.5 20.6212 14.5795 21.9811 13.375 22.9205C12.1705 23.8523 10.7121 24.3182 9 24.3182ZM9 21.8182C10.697 21.8182 12.0152 21 12.9545 19.3636C13.8939 17.7273 14.3636 15.3939 14.3636 12.3636C14.3636 10.3485 14.1477 8.63258 13.7159 7.21591C13.2917 5.79924 12.678 4.7197 11.875 3.97727C11.0795 3.23485 10.1212 2.86364 9 2.86364C7.31818 2.86364 6.00379 3.69318 5.05682 5.35227C4.10985 7.00379 3.63636 9.34091 3.63636 12.3636C3.63636 14.3788 3.84849 16.0909 4.27273 17.5C4.69697 18.9091 5.30682 19.9811 6.10227 20.7159C6.9053 21.4508 7.87121 21.8182 9 21.8182Z" fill="black"/>
</svg>
