<svg width="16" height="24" viewBox="0 0 16 24" fill="none" xmlns="http://www.w3.org/2000/svg">
<path d="M0.409091 24V21.9545L8.09091 13.5455C8.99242 12.5606 9.73485 11.7045 10.3182 10.9773C10.9015 10.2424 11.3333 9.55303 11.6136 8.90909C11.9015 8.25758 12.0455 7.57576 12.0455 6.86364C12.0455 6.04545 11.8485 5.33712 11.4545 4.73864C11.0682 4.14015 10.5379 3.67803 9.86364 3.35227C9.18939 3.02651 8.43182 2.86364 7.59091 2.86364C6.69697 2.86364 5.91667 3.04924 5.25 3.42045C4.59091 3.78409 4.07955 4.29545 3.71591 4.95454C3.35985 5.61364 3.18182 6.38636 3.18182 7.27273H0.5C0.5 5.90909 0.814394 4.71212 1.44318 3.68182C2.07197 2.65151 2.92803 1.84848 4.01136 1.27273C5.10227 0.696969 6.32576 0.40909 7.68182 0.40909C9.04545 0.40909 10.2538 0.696969 11.3068 1.27273C12.3598 1.84848 13.1856 2.625 13.7841 3.60227C14.3826 4.57955 14.6818 5.66667 14.6818 6.86364C14.6818 7.7197 14.5265 8.55682 14.2159 9.375C13.9129 10.1856 13.3826 11.0909 12.625 12.0909C11.875 13.0833 10.8333 14.2955 9.5 15.7273L4.27273 21.3182V21.5H15.0909V24H0.409091Z" fill="black"/>
</svg>
