<svg width="17" height="25" viewBox="0 0 17 25" fill="none" xmlns="http://www.w3.org/2000/svg">
<path d="M8.27273 24.3182C6.77273 24.3182 5.43561 24.0606 4.26136 23.5455C3.0947 23.0303 2.16667 22.3144 1.47727 21.3977C0.795455 20.4735 0.424242 19.4015 0.363636 18.1818H3.22727C3.28788 18.9318 3.54545 19.5795 4 20.125C4.45455 20.6629 5.04924 21.0795 5.78409 21.375C6.51894 21.6705 7.33333 21.8182 8.22727 21.8182C9.22727 21.8182 10.1136 21.6439 10.8864 21.2955C11.6591 20.947 12.2652 20.4621 12.7045 19.8409C13.1439 19.2197 13.3636 18.5 13.3636 17.6818C13.3636 16.8258 13.1515 16.072 12.7273 15.4205C12.303 14.7614 11.6818 14.2462 10.8636 13.875C10.0455 13.5038 9.04545 13.3182 7.86364 13.3182H6V10.8182H7.86364C8.78788 10.8182 9.59848 10.6515 10.2955 10.3182C11 9.98485 11.5492 9.51515 11.9432 8.90909C12.3447 8.30303 12.5455 7.59091 12.5455 6.77273C12.5455 5.98485 12.3712 5.29924 12.0227 4.71591C11.6742 4.13257 11.1818 3.67803 10.5455 3.35227C9.91667 3.02651 9.17424 2.86364 8.31818 2.86364C7.51515 2.86364 6.75758 3.01136 6.04545 3.30682C5.34091 3.5947 4.76515 4.01515 4.31818 4.56818C3.87121 5.11364 3.62879 5.77273 3.59091 6.54545H0.863636C0.909091 5.32576 1.27652 4.25757 1.96591 3.34091C2.6553 2.41667 3.55682 1.69697 4.67045 1.18182C5.79167 0.666666 7.02273 0.40909 8.36364 0.40909C9.80303 0.40909 11.0379 0.700757 12.0682 1.28409C13.0985 1.85985 13.8902 2.62121 14.4432 3.56818C14.9962 4.51515 15.2727 5.53788 15.2727 6.63636C15.2727 7.94697 14.928 9.06439 14.2386 9.98864C13.5568 10.9129 12.6288 11.553 11.4545 11.9091V12.0909C12.9242 12.3333 14.072 12.9583 14.8977 13.9659C15.7235 14.9659 16.1364 16.2045 16.1364 17.6818C16.1364 18.947 15.7917 20.0833 15.1023 21.0909C14.4205 22.0909 13.4886 22.8788 12.3068 23.4545C11.125 24.0303 9.7803 24.3182 8.27273 24.3182Z" fill="black"/>
</svg>
