<svg width="16" height="25" viewBox="0 0 16 25" fill="none" xmlns="http://www.w3.org/2000/svg">
<path d="M7.68182 24.3182C6.34848 24.3182 5.14773 24.053 4.07955 23.5227C3.01136 22.9924 2.1553 22.2652 1.51136 21.3409C0.867424 20.4167 0.515152 19.3636 0.454545 18.1818H3.18182C3.28788 19.2348 3.76515 20.1061 4.61364 20.7955C5.4697 21.4773 6.49242 21.8182 7.68182 21.8182C8.63636 21.8182 9.48485 21.5947 10.2273 21.1477C10.9773 20.7008 11.5644 20.0871 11.9886 19.3068C12.4205 18.5189 12.6364 17.6288 12.6364 16.6364C12.6364 15.6212 12.4129 14.7159 11.9659 13.9205C11.5265 13.1174 10.9205 12.4848 10.1477 12.0227C9.375 11.5606 8.49242 11.3258 7.5 11.3182C6.78788 11.3106 6.05682 11.4205 5.30682 11.6477C4.55682 11.8674 3.93939 12.1515 3.45455 12.5L0.818182 12.1818L2.22727 0.727272H14.3182V3.22727H4.59091L3.77273 10.0909H3.90909C4.38636 9.71212 4.98485 9.39773 5.70455 9.14773C6.42424 8.89773 7.17424 8.77273 7.95455 8.77273C9.37879 8.77273 10.6477 9.11364 11.7614 9.79545C12.8826 10.4697 13.7614 11.3939 14.3977 12.5682C15.0417 13.7424 15.3636 15.0833 15.3636 16.5909C15.3636 18.0758 15.0303 19.4015 14.3636 20.5682C13.7045 21.7273 12.7955 22.6439 11.6364 23.3182C10.4773 23.9848 9.15909 24.3182 7.68182 24.3182Z" fill="black"/>
</svg>
