<svg width="16" height="25" viewBox="0 0 16 25" fill="none" xmlns="http://www.w3.org/2000/svg">
<path d="M8.13636 24.3182C7.18182 24.303 6.22727 24.1212 5.27273 23.7727C4.31818 23.4242 3.44697 22.8371 2.65909 22.0114C1.87121 21.178 1.23864 20.053 0.761364 18.6364C0.284091 17.2121 0.0454545 15.4242 0.0454545 13.2727C0.0454545 11.2121 0.238636 9.38636 0.625 7.79545C1.01136 6.19697 1.57197 4.85227 2.30682 3.76136C3.04167 2.66288 3.92803 1.82954 4.96591 1.26136C6.01136 0.693181 7.18939 0.40909 8.5 0.40909C9.80303 0.40909 10.9621 0.670454 11.9773 1.19318C13 1.70833 13.8333 2.42803 14.4773 3.35227C15.1212 4.27651 15.5379 5.34091 15.7273 6.54545H12.9545C12.697 5.5 12.197 4.63258 11.4545 3.94318C10.7121 3.25379 9.72727 2.90909 8.5 2.90909C6.69697 2.90909 5.27652 3.69318 4.23864 5.26136C3.20833 6.82955 2.68939 9.0303 2.68182 11.8636H2.86364C3.28788 11.2197 3.79167 10.6705 4.375 10.2159C4.96591 9.75379 5.61742 9.39773 6.32955 9.14773C7.04167 8.89773 7.79545 8.77273 8.59091 8.77273C9.92424 8.77273 11.1439 9.10606 12.25 9.77273C13.3561 10.4318 14.2424 11.3447 14.9091 12.5114C15.5758 13.6705 15.9091 15 15.9091 16.5C15.9091 17.9394 15.5871 19.2576 14.9432 20.4545C14.2992 21.6439 13.3939 22.5909 12.2273 23.2955C11.0682 23.9924 9.70455 24.3333 8.13636 24.3182ZM8.13636 21.8182C9.09091 21.8182 9.94697 21.5795 10.7045 21.1023C11.4697 20.625 12.072 19.9848 12.5114 19.1818C12.9583 18.3788 13.1818 17.4848 13.1818 16.5C13.1818 15.5379 12.9659 14.6629 12.5341 13.875C12.1098 13.0795 11.5227 12.447 10.7727 11.9773C10.0303 11.5076 9.18182 11.2727 8.22727 11.2727C7.50758 11.2727 6.83712 11.4167 6.21591 11.7045C5.5947 11.9848 5.04924 12.3712 4.57955 12.8636C4.11742 13.3561 3.75379 13.9205 3.48864 14.5568C3.22348 15.1856 3.09091 15.8485 3.09091 16.5455C3.09091 17.4697 3.30682 18.3333 3.73864 19.1364C4.17803 19.9394 4.77652 20.5871 5.53409 21.0795C6.29924 21.572 7.16667 21.8182 8.13636 21.8182Z" fill="black"/>
</svg>
