<svg width="17" height="25" viewBox="0 0 17 25" fill="none" xmlns="http://www.w3.org/2000/svg">
<path d="M8.86364 24.3182C7.30303 24.3182 5.92424 24.0417 4.72727 23.4886C3.53788 22.928 2.60985 22.1591 1.94318 21.1818C1.27652 20.197 0.94697 19.0758 0.954545 17.8182C0.94697 16.8333 1.14015 15.9242 1.53409 15.0909C1.92803 14.25 2.46591 13.5492 3.14773 12.9886C3.83712 12.4205 4.60606 12.0606 5.45455 11.9091V11.7727C4.34091 11.4848 3.45455 10.8598 2.79545 9.89773C2.13636 8.92803 1.81061 7.82576 1.81818 6.59091C1.81061 5.40909 2.10985 4.35227 2.71591 3.42045C3.32197 2.48864 4.1553 1.75379 5.21591 1.21591C6.28409 0.678029 7.5 0.40909 8.86364 0.40909C10.2121 0.40909 11.4167 0.678029 12.4773 1.21591C13.5379 1.75379 14.3712 2.48864 14.9773 3.42045C15.5909 4.35227 15.9015 5.40909 15.9091 6.59091C15.9015 7.82576 15.5644 8.92803 14.8977 9.89773C14.2386 10.8598 13.3636 11.4848 12.2727 11.7727V11.9091C13.1136 12.0606 13.8712 12.4205 14.5455 12.9886C15.2197 13.5492 15.7576 14.25 16.1591 15.0909C16.5606 15.9242 16.7652 16.8333 16.7727 17.8182C16.7652 19.0758 16.4242 20.197 15.75 21.1818C15.0833 22.1591 14.1553 22.928 12.9659 23.4886C11.7841 24.0417 10.4167 24.3182 8.86364 24.3182ZM8.86364 21.8182C9.91667 21.8182 10.8258 21.6477 11.5909 21.3068C12.3561 20.9659 12.947 20.4848 13.3636 19.8636C13.7803 19.2424 13.9924 18.5152 14 17.6818C13.9924 16.803 13.7652 16.0265 13.3182 15.3523C12.8712 14.678 12.2614 14.1477 11.4886 13.7614C10.7235 13.375 9.84848 13.1818 8.86364 13.1818C7.87121 13.1818 6.98485 13.375 6.20455 13.7614C5.43182 14.1477 4.82197 14.678 4.375 15.3523C3.93561 16.0265 3.7197 16.803 3.72727 17.6818C3.7197 18.5152 3.92045 19.2424 4.32955 19.8636C4.74621 20.4848 5.34091 20.9659 6.11364 21.3068C6.88636 21.6477 7.80303 21.8182 8.86364 21.8182ZM8.86364 10.7727C9.69697 10.7727 10.4356 10.6061 11.0795 10.2727C11.7311 9.93939 12.2424 9.47348 12.6136 8.875C12.9848 8.27651 13.1742 7.57576 13.1818 6.77273C13.1742 5.98485 12.9886 5.29924 12.625 4.71591C12.2614 4.125 11.7576 3.67045 11.1136 3.35227C10.4697 3.02651 9.7197 2.86364 8.86364 2.86364C7.99242 2.86364 7.23106 3.02651 6.57955 3.35227C5.92803 3.67045 5.42424 4.125 5.06818 4.71591C4.71212 5.29924 4.53788 5.98485 4.54545 6.77273C4.53788 7.57576 4.71591 8.27651 5.07955 8.875C5.45076 9.47348 5.96212 9.93939 6.61364 10.2727C7.26515 10.6061 8.01515 10.7727 8.86364 10.7727Z" fill="black"/>
</svg>
