<svg width="16" height="25" viewBox="0 0 16 25" fill="none" xmlns="http://www.w3.org/2000/svg">
<path d="M7.81818 0.40909C8.77273 0.416666 9.72727 0.598484 10.6818 0.954544C11.6364 1.31061 12.5076 1.90151 13.2955 2.72727C14.0833 3.54545 14.7159 4.66288 15.1932 6.07954C15.6705 7.49621 15.9091 9.27273 15.9091 11.4091C15.9091 13.4773 15.7121 15.3144 15.3182 16.9205C14.9318 18.5189 14.3712 19.8674 13.6364 20.9659C12.9091 22.0644 12.0227 22.8977 10.9773 23.4659C9.93939 24.0341 8.76515 24.3182 7.45455 24.3182C6.15152 24.3182 4.98864 24.0606 3.96591 23.5455C2.95076 23.0227 2.11742 22.2992 1.46591 21.375C0.82197 20.4432 0.409091 19.3636 0.227273 18.1364H3C3.25 19.2045 3.74621 20.0871 4.48864 20.7841C5.23864 21.4735 6.22727 21.8182 7.45455 21.8182C9.25 21.8182 10.6667 21.0341 11.7045 19.4659C12.75 17.8977 13.2727 15.6818 13.2727 12.8182H13.0909C12.6667 13.4545 12.1629 14.0038 11.5795 14.4659C10.9962 14.928 10.3485 15.2841 9.63636 15.5341C8.92424 15.7841 8.16667 15.9091 7.36364 15.9091C6.0303 15.9091 4.80682 15.5795 3.69318 14.9205C2.58712 14.2538 1.70076 13.3409 1.03409 12.1818C0.375 11.0152 0.0454545 9.68182 0.0454545 8.18182C0.0454545 6.75758 0.363636 5.45454 1 4.27273C1.64394 3.08333 2.54545 2.13636 3.70455 1.43182C4.87121 0.727273 6.24242 0.386363 7.81818 0.40909ZM7.81818 2.90909C6.86364 2.90909 6.00379 3.14773 5.23864 3.625C4.48106 4.0947 3.87879 4.73106 3.43182 5.53409C2.99242 6.32954 2.77273 7.21212 2.77273 8.18182C2.77273 9.15151 2.98485 10.0341 3.40909 10.8295C3.84091 11.6174 4.42803 12.2462 5.17045 12.7159C5.92045 13.178 6.77273 13.4091 7.72727 13.4091C8.44697 13.4091 9.11742 13.2689 9.73864 12.9886C10.3598 12.7008 10.9015 12.3106 11.3636 11.8182C11.8333 11.3182 12.2008 10.7538 12.4659 10.125C12.7311 9.48864 12.8636 8.82576 12.8636 8.13636C12.8636 7.22727 12.6439 6.375 12.2045 5.57954C11.7727 4.78409 11.1742 4.14015 10.4091 3.64773C9.65152 3.1553 8.78788 2.90909 7.81818 2.90909Z" fill="black"/>
</svg>
