<svg width="60" height="56" viewBox="0 0 60 56" fill="none" xmlns="http://www.w3.org/2000/svg">
<path d="M0.5 0.5H59.5V55.5H0.5V0.5Z" fill="#C6E257" stroke="#C6E257"/>
<path d="M33.2727 35.6364V34.4091C33.2727 33.5606 33.447 32.7841 33.7955 32.0795C34.1515 31.3674 34.6667 30.7992 35.3409 30.375C36.0227 29.9432 36.8485 29.7273 37.8182 29.7273C38.803 29.7273 39.6288 29.9432 40.2955 30.375C40.9621 30.7992 41.4659 31.3674 41.8068 32.0795C42.1477 32.7841 42.3182 33.5606 42.3182 34.4091V35.6364C42.3182 36.4848 42.1439 37.2652 41.7955 37.9773C41.4545 38.6818 40.947 39.25 40.2727 39.6818C39.6061 40.1061 38.7879 40.3182 37.8182 40.3182C36.8333 40.3182 36.0038 40.1061 35.3295 39.6818C34.6553 39.25 34.1439 38.6818 33.7955 37.9773C33.447 37.2652 33.2727 36.4848 33.2727 35.6364ZM35.5909 34.4091V35.6364C35.5909 36.3409 35.7576 36.9735 36.0909 37.5341C36.4242 38.0871 37 38.3636 37.8182 38.3636C38.6136 38.3636 39.1742 38.0871 39.5 37.5341C39.8333 36.9735 40 36.3409 40 35.6364V34.4091C40 33.7045 39.8409 33.0758 39.5227 32.5227C39.2045 31.9621 38.6364 31.6818 37.8182 31.6818C37.0227 31.6818 36.4508 31.9621 36.1023 32.5227C35.7614 33.0758 35.5909 33.7045 35.5909 34.4091ZM21.6818 22.3182V21.0909C21.6818 20.2424 21.8561 19.4659 22.2045 18.7614C22.5606 18.0492 23.0758 17.4811 23.75 17.0568C24.4318 16.625 25.2576 16.4091 26.2273 16.4091C27.2121 16.4091 28.0379 16.625 28.7045 17.0568C29.3712 17.4811 29.875 18.0492 30.2159 18.7614C30.5568 19.4659 30.7273 20.2424 30.7273 21.0909V22.3182C30.7273 23.1667 30.553 23.947 30.2045 24.6591C29.8636 25.3636 29.3561 25.9318 28.6818 26.3636C28.0152 26.7879 27.197 27 26.2273 27C25.2424 27 24.4129 26.7879 23.7386 26.3636C23.0644 25.9318 22.553 25.3636 22.2045 24.6591C21.8561 23.947 21.6818 23.1667 21.6818 22.3182ZM24 21.0909V22.3182C24 23.0227 24.1667 23.6553 24.5 24.2159C24.8333 24.7689 25.4091 25.0455 26.2273 25.0455C27.0227 25.0455 27.5833 24.7689 27.9091 24.2159C28.2424 23.6553 28.4091 23.0227 28.4091 22.3182V21.0909C28.4091 20.3864 28.25 19.7576 27.9318 19.2045C27.6136 18.6439 27.0455 18.3636 26.2273 18.3636C25.4318 18.3636 24.8598 18.6439 24.5114 19.2045C24.1705 19.7576 24 20.3864 24 21.0909ZM22.5455 40L38.5455 16.7273H41.1364L25.1364 40H22.5455Z" fill="black"/>
</svg>
