<svg width="16" height="19" viewBox="0 0 16 19" fill="none" xmlns="http://www.w3.org/2000/svg">
<path d="M8.54545 18.3636C6.90909 18.3636 5.5 17.9773 4.31818 17.2045C3.13636 16.4318 2.22727 15.3674 1.59091 14.0114C0.954546 12.6553 0.636364 11.1061 0.636364 9.36364C0.636364 7.59091 0.962121 6.02651 1.61364 4.67045C2.27273 3.30682 3.18939 2.24242 4.36364 1.47727C5.54545 0.704545 6.92424 0.318182 8.5 0.318182C9.72727 0.318182 10.8333 0.545455 11.8182 1C12.803 1.45455 13.6098 2.09091 14.2386 2.90909C14.8674 3.72727 15.2576 4.68182 15.4091 5.77273H12.7273C12.5227 4.97727 12.0682 4.27273 11.3636 3.65909C10.6667 3.03788 9.72727 2.72727 8.54545 2.72727C7.5 2.72727 6.58333 3 5.79545 3.54545C5.01515 4.08333 4.4053 4.8447 3.96591 5.82955C3.53409 6.80682 3.31818 7.95455 3.31818 9.27273C3.31818 10.6212 3.5303 11.7955 3.95455 12.7955C4.38636 13.7955 4.99242 14.572 5.77273 15.125C6.56061 15.678 7.48485 15.9545 8.54545 15.9545C9.24242 15.9545 9.875 15.8333 10.4432 15.5909C11.0114 15.3485 11.4924 15 11.8864 14.5455C12.2803 14.0909 12.5606 13.5455 12.7273 12.9091H15.4091C15.2576 13.9394 14.8826 14.8674 14.2841 15.6932C13.6932 16.5114 12.9091 17.1629 11.9318 17.6477C10.9621 18.125 9.83333 18.3636 8.54545 18.3636Z" fill="black"/>
</svg>
